<svg xmlns="http://www.w3.org/2000/svg" width="24" height="24" viewBox="0 0 24 24"><path fill="currentColor" d="M21.35 11.1h-9.1v2.7h5.2c-.2 1.1-.9 2.5-2.2 3.4v2.3h2.9c1.7-1.6 2.7-4 2.7-6.7c0-.7-.1-1.4-.2-2.1z"/><path fill="currentColor" d="M12.25 22c2.4 0 4.5-1.1 6-2.9l-2.9-2.3c-.8.6-1.9.9-3.1.9c-2.4 0-4.4-1.6-5.1-3.8H4.2v2.4C5.7 19.9 8.7 22 12.25 22z"/><path fill="currentColor" d="M7.15 14.2c-.2-.6-.2-1.2-.2-1.8s0-1.3.2-1.8V8.3H4.2c-.7 1.4-1.1 3-1.1 4.7s.4 3.3 1.1 4.7l2.95-2.3z"/><path fill="currentColor" d="M12.25 6.2c1.3 0 2.5.5 3.4 1.4l2.6-2.6C16.7 3.3 14.6 2 12.25 2C8.7 2 5.7 4.1 4.2 6.9l2.95 2.3c.7-2.1 2.7-3.8 5.1-3.8z"/></svg>